/* XPM */
static char *b1b7cd771a284c8aea031d24fa1d8485lpdN9N7f1hjUCDrj[] = {
/* columns rows colors chars-per-pixel */
"50 50 256 2 ",
"   c black",
".  c #010101",
"X  c #020202",
"o  c gray1",
"O  c #040404",
"+  c gray2",
"@  c #060606",
"#  c #070707",
"$  c gray3",
"%  c #090909",
"&  c gray4",
"*  c #0B0B0B",
"=  c #0C0C0C",
"-  c gray5",
";  c #0E0E0E",
":  c gray6",
">  c #101010",
",  c #111111",
"<  c gray7",
"1  c #131313",
"2  c gray8",
"3  c #151515",
"4  c #161616",
"5  c gray9",
"6  c #181818",
"7  c #191919",
"8  c gray10",
"9  c #1B1B1B",
"0  c gray11",
"q  c #1D1D1D",
"w  c #1E1E1E",
"e  c gray12",
"r  c #202020",
"t  c gray13",
"y  c #222222",
"u  c #232323",
"i  c gray14",
"p  c #252525",
"a  c gray15",
"s  c #272727",
"d  c #282828",
"f  c gray16",
"g  c #2A2A2A",
"h  c gray17",
"j  c #2C2C2C",
"k  c #2D2D2D",
"l  c gray18",
"z  c #2F2F2F",
"x  c gray19",
"c  c #313131",
"v  c #323232",
"b  c gray20",
"n  c #343434",
"m  c #353535",
"M  c gray21",
"N  c #373737",
"B  c gray22",
"V  c #393939",
"C  c #3A3A3A",
"Z  c gray23",
"A  c #3C3C3C",
"S  c gray24",
"D  c #3E3E3E",
"F  c #3F3F3F",
"G  c gray25",
"H  c #414141",
"J  c gray26",
"K  c #434343",
"L  c #444444",
"P  c gray27",
"I  c #464646",
"U  c gray28",
"Y  c #484848",
"T  c #494949",
"R  c gray29",
"E  c #4B4B4B",
"W  c #4C4C4C",
"Q  c gray30",
"!  c #4E4E4E",
"~  c gray31",
"^  c #505050",
"/  c #515151",
"(  c gray32",
")  c #535353",
"_  c gray33",
"`  c #555555",
"'  c #565656",
"]  c gray34",
"[  c #585858",
"{  c gray35",
"}  c #5A5A5A",
"|  c #5B5B5B",
" . c gray36",
".. c #5D5D5D",
"X. c gray37",
"o. c #5F5F5F",
"O. c #606060",
"+. c gray38",
"@. c #626262",
"#. c gray39",
"$. c #646464",
"%. c #656565",
"&. c gray40",
"*. c #676767",
"=. c #686868",
"-. c DimGray",
";. c #6A6A6A",
":. c gray42",
">. c #6C6C6C",
",. c #6D6D6D",
"<. c gray43",
"1. c #6F6F6F",
"2. c gray44",
"3. c #717171",
"4. c #727272",
"5. c gray45",
"6. c #747474",
"7. c gray46",
"8. c #767676",
"9. c #777777",
"0. c gray47",
"q. c #797979",
"w. c gray48",
"e. c #7B7B7B",
"r. c #7C7C7C",
"t. c gray49",
"y. c #7E7E7E",
"u. c gray50",
"i. c #808080",
"p. c #818181",
"a. c gray51",
"s. c #838383",
"d. c #848484",
"f. c gray52",
"g. c #868686",
"h. c gray53",
"j. c #888888",
"k. c #898989",
"l. c gray54",
"z. c #8B8B8B",
"x. c gray55",
"c. c #8D8D8D",
"v. c #8E8E8E",
"b. c gray56",
"n. c #909090",
"m. c gray57",
"M. c #929292",
"N. c #939393",
"B. c gray58",
"V. c #959595",
"C. c gray59",
"Z. c #979797",
"A. c #989898",
"S. c gray60",
"D. c #9A9A9A",
"F. c #9B9B9B",
"G. c gray61",
"H. c #9D9D9D",
"J. c gray62",
"K. c #9F9F9F",
"L. c #A0A0A0",
"P. c gray63",
"I. c #A2A2A2",
"U. c gray64",
"Y. c #A4A4A4",
"T. c #A5A5A5",
"R. c gray65",
"E. c #A7A7A7",
"W. c gray66",
"Q. c #A9A9A9",
"!. c #AAAAAA",
"~. c gray67",
"^. c #ACACAC",
"/. c gray68",
"(. c #AEAEAE",
"). c #AFAFAF",
"_. c gray69",
"`. c #B1B1B1",
"'. c #B2B2B2",
"]. c gray70",
"[. c #B4B4B4",
"{. c gray71",
"}. c #B6B6B6",
"|. c #B7B7B7",
" X c gray72",
".X c #B9B9B9",
"XX c gray73",
"oX c #BBBBBB",
"OX c #BCBCBC",
"+X c gray74",
"@X c gray",
"#X c gray75",
"$X c #C0C0C0",
"%X c #C1C1C1",
"&X c gray76",
"*X c #C3C3C3",
"=X c gray77",
"-X c #C5C5C5",
";X c #C6C6C6",
":X c gray78",
">X c #C8C8C8",
",X c gray79",
"<X c #CACACA",
"1X c #CBCBCB",
"2X c gray80",
"3X c #CDCDCD",
"4X c #CECECE",
"5X c gray81",
"6X c #D0D0D0",
"7X c gray82",
"8X c #D2D2D2",
"9X c LightGray",
"0X c gray83",
"qX c #D5D5D5",
"wX c gray84",
"eX c #D7D7D7",
"rX c #D8D8D8",
"tX c gray85",
"yX c #DADADA",
"uX c gray86",
"iX c gainsboro",
"pX c #DDDDDD",
"aX c gray87",
"sX c #DFDFDF",
"dX c gray88",
"fX c #E1E1E1",
"gX c #E2E2E2",
"hX c gray89",
"jX c #E4E4E4",
"kX c gray90",
"lX c #E6E6E6",
"zX c #E7E7E7",
"xX c gray91",
"cX c #E9E9E9",
"vX c #EAEAEA",
"bX c gray92",
"nX c #ECECEC",
"mX c gray93",
"MX c #EEEEEE",
"NX c #EFEFEF",
"BX c gray94",
"VX c #F1F1F1",
"CX c gray95",
"ZX c #F3F3F3",
"AX c #F4F4F4",
"SX c gray96",
"DX c #F6F6F6",
"FX c gray97",
"GX c #F8F8F8",
"HX c #F9F9F9",
"JX c gray98",
"KX c #FBFBFB",
"LX c gray99",
"PX c #FDFDFD",
"IX c #FEFEFE",
"UX c white",
/* pixels */
"t 4 r q u 3 < 3 q q 5 1 1 > ; 1 > : > 2 2 : = = = > , > : < < > : * = - & * > > 1 = & - & % 6 k 3 > ",
"t e p b z 9 s h 5 7 6 5 3 ; - 3 , > , 2 3 , : > : < 1 < , < < > ; & * = % - 2 2 , - - > : : 8 f 5 4 ",
"9 r t K m 0 f a < 6 8 7 3 - - 5 > > 1 6 9 7 5 5 - > < , : : - * > * * % + & > > > : > > ; ; < 5 - > ",
"r e 0 B a 6 0 3 2 w w 3 > : > 2 ; , 6 r p i r q * ; > > : - * & ; * * % + & : ; - : : - = - = & * ; ",
"a y e u < 6 5 9 0 d t - & < 1 > ; 1 q a h g u 0 - : , < , : - - & & = * $ ; 1 : & - ; - : < , ; - - ",
"6 w i 0 1 7 4 r y j r & % 2 3 ; , 5 e a g f t 7 ; ; > < , ; - ; * * ; * # * ; % = - ; ; : , , : : ; ",
"7 u e 0 p 9 6 0 y s q ; - < < > 4 7 q t a d u q > : > < > = * - - - ; & + & ; $ ; - ; : : - - - < 1 ",
"m m 6 6 b w y e e t 8 1 < > : 1 8 9 9 0 y f f i 3 1 1 2 < ; - : * = ; = & 1 8 4 * & = , < : > 1 % - ",
"g q 3 7 t i u u t g q # # 2 4 ; d q * 8 p y f i , , : ; > 1 , ; : $ - $ o q v u = - = = < 5 2 * ; - ",
"q 0 7 3 7 y p u a v f < * < 4 4 w 3 - 5 r t i t , , : ; > < , - - % - * $ 0 h t ; ; ; : 1 5 3 > 1 < ",
"1 w e 3 2 t d i g v g 6 , 2 4 7 2 > 1 2 9 t w e , , : ; : , > - : = - * % < 6 1 - = - , 1 < < < 5 5 ",
"< w t 5 2 w p u d d q < 2 5 3 2 < > 7 1 4 t 9 e > > > ; : , > - > ; = & % & * * - = > 3 3 > : < 3 4 ",
"7 q w 9 6 9 w e t r 5 : < 3 1 1 1 , 7 : : 9 5 9 ; > : ; ; > > - ; = * * * = : , : > 4 9 6 , : < > < ",
"u r e t r q q r 8 t 0 , : , 1 5 3 < < * * < < 2 - ; : - ; > > ; : * = = $ = < , ; , 3 6 3 > ; > ; ; ",
"i r r u u r e r 7 y 0 > ; 2 4 6 6 3 = * - ; 1 > * - ; - - > , > > & > : + - 4 ; * : , > : : : ; ; : ",
"q q q w w w q q 9 e 4 & > 9 8 2 9 7 & : < ; 4 > & - ; - - > , > ; $ < 1 # 2 t 2 = > > - - , 1 , : > ",
"y 8 2 8 t 9 < 2 , 4 2 + 5 B k > 8 0 9 4 , : - * & = > , , > : : ; > > - ; < 1 , & , & - 5 3 , # % = ",
"8 7 5 8 0 4 > < < 6 8 & = 0 4 = 7 8 5 , ; > < < & = > < < , > : : < , - = - - = % - $ : 8 7 5 ; * ; ",
"4 7 0 9 6 3 1 1 2 2 5 - $ - * ; 5 6 5 1 1 3 6 6 % - , 2 2 < > : : < < : * & & & = = $ 2 q 0 9 1 - ; ",
"6 8 0 9 6 8 9 7 9 1 < - : 3 > , 1 5 8 9 9 9 7 5 % - < 3 3 1 , : - , 1 > = & = ; , : = 7 w 7 6 ; - = ",
"0 6 8 8 6 w y 9 t 7 4 : 1 0 2 > , 3 7 8 8 7 3 > % - < 3 3 1 , > - : , > = & - > < : ; 7 6 2 2 # = * ",
"w 5 0 r 8 0 t 8 7 8 q 1 < 7 3 3 : , < , , < > - % - , 2 3 1 , > : : : ; * % * : - - : 4 , , 5 % > ; ",
"e 0 g c r 7 q 7 3 6 r 7 2 3 2 8 : : ; = ; , , : % = > 1 1 1 , , < : - - * % * : = ; < 2 - 3 y 2 6 1 ",
"r u C H s 5 9 9 0 9 y w 6 2 : 5 ; : : : , 2 2 , % = > < 1 < < , 2 : - - - = ; < : 1 4 3 = 7 j w e 6 ",
"4 q v v i q 6 0 q w i 8 > > 1 e i 5 : 1 5 4 2 4 - ; , 1 < > , < > - : ; & - 1 1 , : 4 0 > 6 C P 6 5 ",
"0 q k j r 9 4 7 e q e 1 : 4 7 y g 0 < 1 4 3 1 3 ; , 2 3 1 > : : < : , : & = , > % * 3 e 2 6 v N 5 4 ",
"i q p y 8 8 6 0 q 9 8 : > e y a f w 1 , 1 1 < 1 ; < 4 5 3 < : ; 1 > < , * * : ; ; < 8 u 9 9 j h 2 1 ",
"a 0 r w 5 6 7 r 9 0 e 3 7 f g f r 7 , : > < < < = , 3 4 3 2 < > 1 , < , * = : ; : , < 5 , : 9 6 : : ",
"r 6 t t 6 4 4 q 7 e a w e g a y 5 2 > : > < , : * , 3 2 1 2 1 > 3 < 2 < * * ; = : < ; , ; * < - - - ",
"8 3 y u 8 3 1 9 5 0 i 0 8 w 4 1 2 3 2 , , 1 , = = < 4 2 < 1 < : 5 2 2 < * & - = - 2 , 2 2 , 1 - - - ",
"e 3 q w 5 4 9 s 8 7 q 4 1 3 ; : < 3 3 , , 2 < = & < 5 3 2 4 2 > 3 < < , * = > : $ , - : < ; : * - ; ",
"s 5 5 3 , 7 s V u 0 9 3 2 6 2 5 : 2 2 > > 2 1 - @ > 5 5 5 7 5 < , ; > : * ; 3 3 : 6 , > 1 , 1 > = - ",
"4 7 5 3 4 8 s C y e q 9 5 1 > > : 3 3 2 7 5 > - $ 1 4 2 5 5 2 1 ; ; , : & = , ; : - : , < 3 < @ : : ",
"6 9 9 0 q 0 e f u r 0 4 , ; > 2 > 2 < , 4 3 > : & 1 3 , 2 3 < < ; > 3 1 * ; 2 3 > ; : : ; 2 6 1 : : ",
"6 7 0 e r q 8 8 e e 0 3 : ; , 2 : 1 > ; 1 2 > > & 1 1 : , < > , - > 3 < % * 1 3 , > 2 2 , 3 8 6 2 2 ",
"7 7 0 e q 0 9 7 6 0 0 6 3 2 < : : < : - 1 2 > > % < < ; > < > > ; > 2 > # & 1 2 3 3 9 w 7 6 5 , 5 4 ",
"e w i i 9 8 0 7 4 8 9 7 8 q 5 ; ; < > > 3 3 > : # > < : < 1 , , < , 1 > = , 7 8 t 9 8 0 8 7 5 > < < ",
"d s l h 9 6 9 3 8 0 8 4 8 t q < - 1 < , 4 4 > ; @ > < > 1 2 , , , > , : - 2 w e g 9 , > , 4 8 4 > > ",
"j f z h 7 6 q 3 9 e 0 3 7 t w 2 : 1 < , 3 3 : ; $ , < ; , < , , : ; > - % > 9 w p 3 * * - 1 5 2 , , ",
"j p f i 2 6 t 8 7 t r 6 7 r q < : 2 , > 2 2 : - & < , = ; > : , > , 1 ; # = 7 q 7 - & ; > , > * , < ",
"c p g Z 9 : c p a e e 5 5 u w 4 > < 2 2 < > : : & : < , : > < < > 6 3 : # - w 0 1 > , - $ 1 5 & , 6 ",
"d s f D c w c b h p a 0 8 u w 3 > < 3 3 2 , > > & : < , > , , , : 5 3 > & > t w = * ; < < 2 < * > 5 ",
"e f t h k 9 t f a y p 0 5 r 0 3 : , 2 3 2 < , > % ; 1 < , , , , : 4 3 < = , r q < : - , 5 4 3 9 6 w ",
"9 p 6 3 6 1 5 5 q 9 r 5 2 w q 7 ; > 1 3 2 1 , : $ ; 1 1 , , , , > 4 2 < = : 0 5 ; : % % < , > 7 7 q ",
"e 6 6 r 0 8 r 8 q 9 r 5 1 w e 0 > , 2 4 4 3 < > $ ; 1 1 , < < , , 3 1 < - : 8 3 % 1 , : 5 3 ; > : , ",
"u = 0 M j t u w e 0 r 4 , 0 9 5 < 2 4 6 7 5 2 , $ ; < < , , < < < 3 < 1 ; > 8 3 ; 3 3 < 2 4 < : : > ",
"y > e c f y r 8 8 5 0 2 , 9 5 , 1 2 4 6 7 5 1 > % ; < , > , 1 1 2 3 , < - ; 6 < - & = ; * = : ; 1 < ",
"w q y q 9 a p 9 1 < 7 2 2 e 8 1 < 1 3 5 6 3 , - % ; < , > , 1 1 4 3 > > * * 1 ; ; @ , w 6 < 1 , - = ",
"t q s q e 7 8 e i 6 ; : 4 8 5 2 1 2 2 3 5 6 3 : % = < < ; > 2 , < : ; > ; * - 1 - - 4 3 2 4 : , - - ",
"r 9 a 0 w 5 6 w d 9 > : 3 5 2 , < 1 1 1 4 5 1 ; % = < < ; > 2 , < : ; > ; * - 1 - = < > : < ; < - - "
};
