/* XPM */
static char *_25cda771c1a4e3dcc556a5b12e31346vpzxGq4rIsRUo1sT[] = {
/* columns rows colors chars-per-pixel */
"50 50 240 2 ",
"   c #171818",
".  c #131616",
"X  c #3C0202",
"o  c #3D0C0C",
"O  c #350404",
"+  c #2B0F0F",
"@  c #3E023E",
"#  c #3D0C3D",
"$  c #3D183D",
"%  c #272727",
"&  c #322727",
"*  c #322A2A",
"=  c #3F2B2B",
"-  c #293535",
";  c #333535",
":  c #3B3D3D",
">  c #363939",
",  c #3F273F",
"<  c #133434",
"1  c #440000",
"2  c #4D0000",
"3  c #460D0D",
"4  c #530101",
"5  c #5B0101",
"6  c #570B0B",
"7  c #4D1818",
"8  c #6C0101",
"9  c #630402",
"0  c #740101",
"q  c #7C0101",
"w  c #731717",
"e  c #691B1B",
"r  c #500D3D",
"t  c #592627",
"y  c #50383A",
"u  c #682525",
"i  c #7A2323",
"p  c #7C2B2B",
"a  c #742626",
"s  c #683938",
"d  c #7E3B3B",
"f  c #783433",
"g  c #731A29",
"h  c #3C453E",
"j  c #7B552D",
"k  c #695F1F",
"l  c #440144",
"z  c #490146",
"x  c #4C004C",
"c  c #4A0B4B",
"v  c #440746",
"b  c #51014E",
"n  c #52084D",
"m  c #4A194A",
"M  c #4E0052",
"N  c #510152",
"B  c #530B53",
"V  c #5B015B",
"C  c #5A085A",
"Z  c #531452",
"A  c #5A185A",
"S  c #482448",
"D  c #483648",
"F  c #5B255B",
"G  c #5C2C5C",
"H  c #532653",
"J  c #5B335B",
"K  c #553755",
"L  c #5C0361",
"P  c #4F1D62",
"I  c #620164",
"U  c #66016A",
"Y  c #6B016D",
"T  c #661966",
"R  c #6E0171",
"E  c #760177",
"W  c #592363",
"Q  c #642764",
"!  c #683968",
"~  c #752F76",
"^  c #60005F",
"/  c #2D4242",
"(  c #314444",
")  c #3B4343",
"_  c #365454",
"`  c #494A4A",
"'  c #554949",
"]  c #594C59",
"[  c #555353",
"{  c #5B575B",
"}  c #43554F",
"|  c #684647",
" . c #734545",
".. c #6C5B51",
"X. c #596759",
"o. c #664E65",
"O. c #6A476B",
"+. c #675767",
"@. c #754A76",
"#. c #795A78",
"$. c #6B4676",
"%. c #686868",
"&. c #697569",
"*. c #786A7B",
"=. c #777678",
"-. c #786D70",
";. c #605C58",
":. c #830101",
">. c #8A0202",
",. c #930101",
"<. c #9B0101",
"1. c #8E1A1A",
"2. c #A90202",
"3. c #B50101",
"4. c #BC0000",
"5. c #832C2D",
"6. c #8A2C2C",
"7. c #932D2D",
"8. c #862F30",
"9. c #803A3A",
"0. c #8A3634",
"q. c #933232",
"w. c #9C3434",
"e. c #AC2B2B",
"r. c #A43534",
"t. c #B93232",
"y. c #8F2519",
"u. c #C30000",
"i. c #CA0000",
"p. c #DA0000",
"a. c #D20000",
"s. c #F00000",
"d. c #CF2F2F",
"f. c #984705",
"g. c #9A561B",
"h. c #A64700",
"j. c #B84900",
"k. c #AE580D",
"l. c #894C2C",
"z. c #AC473C",
"x. c #A66933",
"c. c #B56E30",
"v. c #867620",
"b. c #D35800",
"n. c #F56300",
"m. c #8B5A5B",
"M. c #8F5353",
"N. c #997D52",
"B. c #805E66",
"V. c #8A6565",
"C. c #877878",
"Z. c #9C7B7B",
"A. c #967A7A",
"S. c #8E6D65",
"D. c #A17B7B",
"F. c #A57877",
"G. c #B96868",
"H. c #B67845",
"J. c #CD4949",
"K. c #798379",
"L. c #A9B100",
"P. c #D9D008",
"I. c #B58650",
"U. c #918674",
"Y. c #A78F73",
"T. c #C59363",
"R. c #673E81",
"E. c #7D5786",
"W. c #747181",
"Q. c #8A008C",
"!. c #825C83",
"~. c #804F81",
"^. c #887988",
"/. c #8C6F8D",
"(. c #A247AD",
"). c #9C739A",
"_. c #779595",
"`. c #8C8B8B",
"'. c #878686",
"]. c #9B8282",
"[. c #948888",
"{. c #888896",
"}. c #978498",
"|. c #8C9394",
" X c #8A9B9B",
".X c #869797",
"XX c #959395",
"oX c #9D9595",
"OX c #9A9B9A",
"+X c #90948B",
"@X c #A58281",
"#X c #A88686",
"$X c #B78686",
"%X c #A49595",
"&X c #A29B9B",
"*X c #A99796",
"=X c #B3999A",
"-X c #A89A8D",
";X c #9AA39A",
":X c #ADA69C",
">X c #9A91A7",
",X c #A59AA3",
"<X c #9BA5A6",
"1X c #9FB3B3",
"2X c #A4A5A3",
"3X c #ACA3A3",
"4X c #A3ACAC",
"5X c #ABABAB",
"6X c #A8AAA8",
"7X c #B3A3A3",
"8X c #B2ADAD",
"9X c #BAAAAB",
"0X c #A9B5AB",
"qX c #B3B1AF",
"wX c #AAB7B6",
"eX c #B4B4B4",
"rX c #B9B5B5",
"tX c #B4BBBB",
"yX c #BBBBBB",
"uX c #B6B9B6",
"iX c #A5AFB7",
"pX c #C6B9B9",
"aX c #C0AAAA",
"sX c #C99B8C",
"dX c #B7C2BA",
"fX c #ACCAB4",
"gX c #BABEC3",
"hX c #ADB9C3",
"jX c #AEC1C1",
"kX c #B4C2C2",
"lX c #BAC3C3",
"zX c #BDCACB",
"xX c #BBC5C7",
"cX c #B5C8D3",
"vX c #C3C8C8",
"bX c #C5D3CB",
"nX c #C9D9D6",
"mX c #D3DFDF",
"MX c #D8E7E5",
"NX c #D1E3DB",
/* pixels */
"h / / / / / ( / / > : : : / / / / / / / ( / ( ( ( / / / > > : / / ( ( ( ( / / / - - / ( ( ( ( h / > ",
"D 1.q.6.6.6.8.6.6.5.` }  .1.6.6.6.6.6.6.q.q.q.0.q.6.6.6.f ` ` 9.r.w.q.q.0.7.6.6.i i 6.8.0.8.p p g y ",
"j n.a.a.a.3.p.4.p.<.= _ e.s.4.u.u.4.u.4.u.i.u.4.4.3.p.a.:.> ( u.p.p.p.a.p.u.i.4.p.a.4.u.2.u.u.u.b.k ",
"P.L.U.,X*X%X*X%X%XoXXX,X%X%X%X%X%X%XoX%X%X%X%X%X%XoX*X%XoXOX&X&X%X%X%X%X*XoX%XoX*X*X%X%XoX*X,XY.P.v.",
"v.k | _._..X X`. X X X|. X X X X X X X X X X X X X X X X X X X X X X X X X X X X_._.`. X X=.=.X.c.k ",
"y ,.m.'.t.f | -.9.9.9.d d 9.d 9.9.9.9.9.9.9.9.9.9.9.9.9.9.9.9.9.9.9.d 9.d d j w.J.d.Z.| t %.iX .9 * ",
"s u.Z.C.d.].' 7 B.Y.$X#XY.Z.F.Z.D.D.D.Z.D.Z.Z.Z.Z.Z.Z.Z.Z.Z.D.D.D.D.Z.D.).F.#X$XsXG.t ' ;.J.[.| 1 % ",
"' 8 ].XX7 zX6X=. XwXtX{.{.nXnXvXlXkXyXkXlXlXvXzXbXbXbXzXcXxXyXlXgXtXgXvXfXE.$.kXhXiXXX'.nXr...%.X * ",
"} < <X7Xy OXuX6X=.'.XXc A #.uXbXvXyXrXuXrX5X^.;X/.!.!.Y.T.=XwXqXqXyXdX;X@.A x [.2XOX&XvX6X= [.=.. - ",
"e.2.$XyXy `.6XyX6XK.-.m b x A !.qXyXlXtXyX,Xz H r n Z 1.b.n.sXdXdX;X@.Z N n S XXOX&XrXvXXXy XXZ.O 1.",
"4.<.@XpXw <XXXqXOXF +.X.m z x x A T C.,XuXqX] x M B P 6.Y.9X-X=.T I N N b S &.#.F +XlX2X|.7 *X^.2 2.",
":.<.@XpXe.1X`.`.F U K %.X.S v l R ^ N W *.uX).x M N z C.wXW.W V I Y x c S X.] I I W OX+X'.a ,XY.2 q ",
">.<.@X7Xw.tXXX*.l U R N G ` ` $ N x M M l uX}.v N B x }.eXz N b N N v h ` K x L Y R ^.'..Xa &X^.2 0 ",
">.:.Z.3X0.bX3X`.$ x I R U C m # r @ l G ;XqXO.x N N x O.0X;XG l l @ $ m c M I Y R Q '.=.;Xi 7XU.2 :.",
"q :.[.3X0.MX5X'.X.m M L U U V L @ @ F O.O.3XA x N b x A 6XO.O.F @ l V x x L Y Y Q &.K.'.4Xp 7X^.2 9 ",
"o O [.3X0.MX#.x { X.[ H L U U E x l x x l <X^.x N N x ^.;Xl l l l b Y V L N ~ &.&.D , o.wX5.7X'.O o ",
"` /  X=Xp mX~ x v m S _ D K ! V I N x x x G m N x N M Z H z x l z V N H @.*.K.J S v @ Z dXp 3X`.. - ",
" .a.sX9X6.nX~ V N l r @ v m T E M V l x N x N N b x N M v z l x N b E T A Q n l @ @ @ Q dXp 3X].1 & ",
" .p.=XpXr.mX! N V c x @ r @ V E N V b x M N m H H A m Z x x x N V b Q.U N b z l r v l Q wX6.7X@X1 & ",
"s 3.].9X0.tX|.! B x l l l l x U V x N N M B { ~ @.@.~ { Z N V V N ^ Y V b x x @ @ # K +XwX6.7X^.1 & ",
"s 2.).:Xl.).T X.+.+.] ] K D $ N V Y V x x Z ~.Q.R R Q.~.Z N V V E V V K D D , D D [ X.T >Xr.9X@X1 & ",
"| 2.Z.-X0.!.@ B A C B B c c v l x V E V x Z O.R Y Y E O.Z N V E I N V B m v v v v B B B ).z.pX%XX & ",
"s 4.F.`.f #.l V V N N M x x x x b x x N N Z @.Q.T R Q.@.m V N V N V N x l x x l x M L V ).z.9X#X1 & ",
"` e A.[.s E.l B N N V N N x B H b N B H x Z +.E K R R %.B N H B N N H c l l l x x M I V (.M.7X`.O % ",
"[ ` XX*Xd |.v x b x x N m o.B Z x B K B N B %.=.{ ] =.%.c N B K n x c B { m c l x b V n |.0.7X`.. ; ",
"3.4.F.2X6.tX=.A Q Q ] %.J x N b B o.n N N x x H *.%.H N M N V B o.B x v l G +.] Q Q T =.dX5.7X^.2 <.",
"2.,.#X3X5.lXuX0X'.*.O.x N N x B o.B x x x N N N x x N N N b x x B o.B x x l x O.!.'.4X0XiXa oXS.2 :.",
":.q $X3Xp bX@.G B l x N N x B o.B x A G J B x N N M N x B J G Z x B o.c x x B N b B Q O.;Xt '.-.2 9 ",
"<.:.@X3X5.bXQ l N N N N x B o.N M x =.^.F b M x N x x N N H ^.=.x b B o.B x b V C V l A 4Xu `.V.2 q ",
"<.:.@X3X6.zX'.x N b N x B o.B b x ! #.x x N b N N N N N b N x #.! N b N o.B N V V V M U.4Xa XXS.4 0 ",
"4 5 D.3X6.xX6XG x N x B o.B b N x ! x M N N N x N x x N N x x x ! x B x N +.B b B M J 6XgXp *XZ.6 5 ",
"*   XXaXq.bXyX2XG x B o.N N B x @.B x N x N N N N N N N N N N x B @.x N N N o.B x G <XeXlXf 7X'.. & ",
"' y 8XpXr.mXvXuX6XXX<XW.L x l ! dX(.A n M x G G x x G G N M b A (.dX! z x N ^.&XXX6XrX8XvX8.7X`.+ ; ",
"s s.Y.9Xr.zXpXrXeXyX<XI.-.R.E.kXwXY.J M B x x x N M b x x N M J Y.iXhX/.! -.Y.<XuXuXyXrXbXq.9X#X4 & ",
" .u.).=X7.lXeXeXrXtXx.j.k.I.I.H.x.h.u n l O.!.x M V x #.+.l r u h.x.H.I.I.k.j.x.xXpXvXvXmXr.pX%XX & ",
"s u.Y.aX7.gXeXeXeXeX=XS.j h.h.b.f.l.U.3X5X,XA M b N N A ,X5X3XU.l.f.j.j.f.j S.:XyXyXpXgXnXr.pX#XX & ",
"s u.D.3X6.xX5XeXuXtXY.h.g.k.j.k.x.f.c.vX,XB x N x N N x B &XxXc.f.c.k.h.k.g.h.Y.tXeXeXeXzXq.9X[.1 & ",
"s i.F.OXp wX2X6X5XwXg.| |.c.f.<XhXU.N.*.x x b M N N b N M x *.N.U.hXOXg.c.|.| g.tXeXeXqXlXp 7X^.1 % ",
"s <.A.3X5.kX5XqXqXeX&X6XtXc.j zX&X=.F x N b x N x N N x M N z W =.&XxXj c.gX6X&XeXeXeXqXlX5.7X].O & ",
"_ - |.=Xi tXrXqXeXeXuXrXeX+XI.).l l x B N x O.Q x x Q O.x N B b x v }.c.oXrXeXuXeXeXqXeXtXi 7X`.. - ",
"0.w *XqXu A.jXlXuXeXeXeXeXeXtX6XK.! v l c `.^.c N N c ^.`.x z c J U.5XyXtXeXeXqXeX8XvXdXC.u rX[.+ e ",
"3.3.V.lX[.u a M.<XtXkXyXtXeXeXrXyX4X`./.XX5XZ b N b N Z 6XXX/.`.4XgXeX8XeXuXuXkXtX<XM.i u C.kXV.4 ,.",
",.0 6 C.dX3XA. .w i i C.&XeXgXtXqXeXuXdXyX5XJ x N N M J 6XdXdXyXeXqXyXkXtX%XC.p i w m.^.5XtXC.4 4 2 ",
"<.0 4 4 ' `.jXzXuX3XC.i w  .V.%XgXlXrXeX8XeX6XK x x K 6XrX8XeXrXlXhX%XV. .w i C.3XyXwX4XA.' 4 4 9 ,.",
"q >.0 9 4 3 s m.C.<XxXxX4XV.f u f M.4XyXxXrXyX6XJ K 4XuXuXzXyX<Xm.d u f V.4XxXxX<XC. .7 2 4 5 8 0 <.",
"0 <.:.8 >.q 4 4 2 7 f =.6XvXxX,XS. .e p 5.'.3XyX0X0XyX6XC.p p e  .S.3XkXvX6X=.f 7 2 4 5 6 >.0 9 ,.0 ",
":.q :.8 q 0 8 :.:.4 4 4 6 6 [ +XwXtX9X*XC.a w  .U.^. .w a C.*X7X4X8X[.' 3 - % 4 5 5 :.8 :.,.:.q :.0 ",
"o o o o o o o o o o 3 3 o o     ; { '.XX5XgXwXm.8.8.m.5XvXiXXX&.= X o X + % ; o o o o o o O o O o o ",
"> ) ( > - > ( : ) ) > - > - % % %   .   D { &.OXbXvXXX-.{ h     % % % - % % * - : ) ) ) : - - ; > : ",
"[ [ [ ' ' [ [ [ [ [ [ ` ' ` ` : > : ; %   . . % > > %   .     % % ; ; > ) ` ` [ [ [ [ [ [ [ [ [ [ [ "
};
