/* XPM */
static char *_674085db3854101bf00673ef8e90b60c6ISoRrzTGvwhf9i[] = {
/* columns rows colors chars-per-pixel */
"50 50 40 1 ",
"  c #363E49",
". c #3A424D",
"X c #3F4752",
"o c #424A55",
"O c #464E59",
"+ c #44525D",
"@ c #4A535D",
"# c #4E5661",
"$ c #4F5862",
"% c #4F5B69",
"& c #525B65",
"* c #565E69",
"= c #576067",
"- c #56616A",
"; c #5A636D",
": c #536370",
"> c #5E6671",
", c #5E6972",
"< c #5F6D7A",
"1 c #626B75",
"2 c #666E79",
"3 c #677077",
"4 c #65727B",
"5 c #6A727D",
"6 c #667580",
"7 c #6E7681",
"8 c #677882",
"9 c #6C7A83",
"0 c #6D7C89",
"q c #727A84",
"w c #757E89",
"e c #75818A",
"r c #7A838D",
"t c #7F888F",
"y c #778794",
"u c #7E8691",
"i c #7C8993",
"p c #828B94",
"a c #868E99",
"s c #8B949D",
/* pixels */
"euwwwrwaqwuuuuuaaq7>2wwwuwwwuuwutpterq5wwe5e5eee5p",
"55215555*77777qq7OO#*>>>5522522233,333=&,==;;;;,,4",
"11222252;7w77wuq7#*7527755555555335q33,33;=>,>>1,4",
"2155257277777w77##>>>>>557577777e5qq,=133>;>11131e",
"7227222>q77wuq7##;7>>77755557777q3353133=>;=;,1>:<",
"7227752177qq7&O#>;>>>77777777777555q33>;=;>=;11;,e",
"121227217777*##>5;7>2722777777q7qe5;&OoO=;;>>1>=<e",
"27127212q7&#&>7>7;7727777777qqqq55=O$&&===;13>==<0",
"2>77172>>&#*>7;>2277777q777qqqqw3=@&;==>*&*>*O@;<8",
"712277>&#*;1>77>225577777ww77qqq=$&&;&=;#@@##&>7<8",
"212277*&;12>;>>7577777qw7775quq>@=;==;;>111>>121<4",
">27772&>>11>*777555557qw7ur71*&#&;;=&=131121221;,4",
"27771*#2>>7>7*;*##****>>552>####=;===>11;>>>1112,4",
"721*&#@;>>>>*@O#########>@XO*>>>>==;3>>131>1>;>2<e",
"1&##@#**#*####*;*>***>**@@&>***>>==>>>;1;;;1>1>140",
"Oo###;>1>>;*>77&****>*>>#&&>>>;*=;3>;>1;31;11777:<",
";#**>>>>>>>12>;;>*>**>;&@#;>>;>;>>>>;;>>;>1772&O+:",
"77**7>21>121***;**;>>*##&;;>>>>>;*;>1112522*Oo@*,6",
"7**7>71121>;***>;>>>>*##>>>>>>>;>>;;;;;;*#XO#>>>,8",
">67>>>1>1>*#*>>;;>;;2##>1>1>>>1>*#Oo. ..OO#*>721,6",
">6;621>>>&#&;>>;;2>*2O*>>>1>>>>11*#OooO$&;221;;1<8",
"6>6>2>;*&**;;>>>;2>>2O*>*>11>1111&@OO@$;1>>11221:8",
"7>>>>>***;>>>>>1>2>>>O>>>111111>;$@@$$=1>111>>12<e",
"766>>**;1>>>>12>>>>&&X2>2221222>&@O#===31>11222><0",
"7;:>1*&>;1;*11*>&***@#*1;;*;*&##OO@$=11;>1,13133<8",
">><1>*&>;;*;;**;*;*#OOXOOOO##@#O@@===11,1111111,,8",
":16>--:>>*;;;*>>>#X  XO#&####&&&$===111;3111111,:4",
"6>;%>>>>1;;>;>>*OoXX@#;;;*>*;***==;=1113111,111,<4",
"4,-->,,,>*>>;1>#@#&;;;;=********==11;133>,,13,1,:<",
"<,;,>>,>>>1>11;@;;;;;;;>*;;;;;*;;;,3311,1,11,,,,<8",
"<,<<,>,>>1122;&&&=*;;;;;;;;****;11131,1;3311,3,,<4",
"541,,21<>>>55*#;;;;;;;;>;;;;;;>2111133311,,,,3,<:8",
"9,;,211121>77@;*;=;;;;;;;3=3;>33>>>33>1111>>>>>3>4",
"3;;122122117*#1>;;;>=3=3;;==;13333;333333111>1>3,4",
"1>1322122177@&>;>;;;;3====3=>333>1333>>>331113356y",
"224522222271@;;;>>;;>=====3333313333>3351113535316",
"52225555>77&*>>111;>>>;;=333>333331135335333>;==:<",
"55212525777O;1;7111;>>>;==33>33313733;;===;137qq60",
"7522277q77>#*1>1111>>1>>;3333331373>==355577755560",
"25557www>*#**12722121121333333&O@@@=17533557755560",
"7qwwuu7*#7>#>7>722122211*155&Xo&###125575777757760",
"uww77*&@*1;#77>755222>11&&#O#&*272255552q5557753wy",
"7>&*#*>71>**777755221121&#O@*122>15525q77qqqq77qwy",
"*@#*77>>7*;777772221125>&111551155752555577q5557ww",
">;7>1>1*>*;77777221217q*&111>1115>12777557qwrrwq%>",
"7>>;;>77**7w77772212277@*11;1255527qq7wwrrrrq1=#&>",
">>7771>#>77w77>755552qqO;2212211112>#@@#@&;*&#&&>7",
"7>>77>>;7q777>7755752qq@#**###OO#OOO#>>&**&&*;13>5",
">*>>*125751>22255315q7*o#&&#O#&;>11111&*;;1>>*;=;5",
"uquuwuuaauwrppuprassu525uuuwwuuauuuuru57wqurrqrwqu"
};
