/* XPM */
static char *b5049e3ab6fc491cc4f5a278960120f8EKPRPJlQvIGCTEsC[] = {
/* columns rows colors chars-per-pixel */
"50 50 244 2 ",
"   c #5C636D",
".  c #5E656F",
"X  c #5F6670",
"o  c #616872",
"O  c #636A74",
"+  c #646B75",
"@  c #666D75",
"#  c #666D77",
"$  c #676E78",
"%  c #686F79",
"&  c #697078",
"*  c #6A7179",
"=  c #69707A",
"-  c #6A717B",
";  c #6C737B",
":  c #6B727C",
">  c #6C737D",
",  c #6D747C",
"<  c #6E757D",
"1  c #6D747E",
"2  c #6E757F",
"3  c #6D767F",
"4  c #6F767E",
"5  c #70777F",
"6  c #6A7780",
"7  c #6E7480",
"8  c #6F7581",
"9  c #6F7680",
"0  c #6E7780",
"q  c #6F7881",
"w  c #707781",
"e  c #717880",
"r  c #727981",
"t  c #717882",
"y  c #707982",
"u  c #727983",
"i  c #717A83",
"p  c #737A82",
"a  c #747B83",
"s  c #757C82",
"d  c #767D83",
"f  c #737A84",
"g  c #747B85",
"h  c #747A86",
"j  c #737C85",
"k  c #707D86",
"l  c #757C84",
"z  c #767D85",
"x  c #757E85",
"c  c #757C86",
"v  c #747D86",
"b  c #767D87",
"n  c #757E87",
"m  c #777E86",
"M  c #787F85",
"N  c #787F87",
"B  c #777E88",
"V  c #767F88",
"C  c #787F89",
"Z  c #798086",
"A  c #7A8187",
"S  c #738089",
"D  c #778089",
"F  c #77818B",
"G  c #74828D",
"H  c #76848D",
"J  c #798088",
"K  c #7A8189",
"L  c #7B8288",
"P  c #79808A",
"I  c #78818A",
"U  c #7A818B",
"Y  c #79828B",
"T  c #7B828A",
"R  c #7C8389",
"E  c #7C838B",
"W  c #7D848A",
"Q  c #7E858B",
"!  c #7B828C",
"~  c #7A838C",
"^  c #7C838D",
"/  c #78858D",
"(  c #7B848D",
")  c #78858E",
"_  c #7A848E",
"`  c #7B858F",
"'  c #79868F",
"]  c #7D848C",
"[  c #7E858D",
"{  c #7F868C",
"}  c #7D848E",
"|  c #7C858E",
" . c #7E858F",
".. c #7D868F",
"X. c #7F868E",
"o. c #7F888F",
"O. c #798591",
"+. c #7A8790",
"@. c #7A8692",
"#. c #7B8793",
"$. c #7D8791",
"%. c #7F8690",
"&. c #7E8790",
"*. c #7B8890",
"=. c #7A8891",
"-. c #7B8891",
";. c #7F8891",
":. c #7C8992",
">. c #7E8892",
",. c #7F8993",
"<. c #7E8B93",
"1. c #7C8894",
"2. c #7D8995",
"3. c #7E8A96",
"4. c #7F8B97",
"5. c #7E8C95",
"6. c #7F8C95",
"7. c #80878D",
"8. c #80878F",
"9. c #81888E",
"0. c #82898F",
"q. c #808791",
"w. c #818890",
"e. c #828991",
"r. c #838A90",
"t. c #818892",
"y. c #808992",
"u. c #828993",
"i. c #818A93",
"p. c #838A92",
"a. c #828B92",
"s. c #848B91",
"d. c #848B93",
"f. c #858C92",
"g. c #868D93",
"h. c #808A94",
"j. c #818B95",
"k. c #838A94",
"l. c #828B94",
"z. c #848B95",
"x. c #838C95",
"c. c #808D96",
"v. c #828C96",
"b. c #808E97",
"n. c #818E97",
"m. c #858C94",
"M. c #848D94",
"N. c #868D95",
"B. c #878E94",
"V. c #858C96",
"C. c #848D96",
"Z. c #868D97",
"A. c #858E97",
"S. c #878E96",
"D. c #868F96",
"F. c #888F95",
"G. c #888F97",
"H. c #808E99",
"J. c #828F98",
"K. c #818F9A",
"L. c #858F99",
"P. c #878E98",
"I. c #868F98",
"U. c #888F99",
"Y. c #879097",
"T. c #8A9197",
"R. c #829099",
"E. c #839099",
"W. c #82909B",
"Q. c #879099",
"!. c #84919A",
"~. c #85929A",
"^. c #84929B",
"/. c #85929B",
"(. c #83919C",
"). c #84929D",
"_. c #86939C",
"`. c #85939E",
"'. c #86949D",
"]. c #87949D",
"[. c #87959E",
"{. c #86949F",
"}. c #899098",
"|. c #889198",
" X c #8A9199",
".X c #89909A",
"XX c #8A919B",
"oX c #89929B",
"OX c #8B929A",
"+X c #8C939B",
"@X c #8B929C",
"#X c #8C939D",
"$X c #8B949D",
"%X c #88959E",
"&X c #8A949E",
"*X c #88969F",
"=X c #8D949C",
"-X c #8C959C",
";X c #8E959D",
":X c #8D969D",
">X c #8D949E",
",X c #8E959F",
"<X c #8D969F",
"1X c #8F969E",
"2X c #90979F",
"3X c #8997A0",
"4X c #8A97A0",
"5X c #8F95A1",
"6X c #8F96A0",
"7X c #8E97A0",
"8X c #8B98A1",
"9X c #8B99A2",
"0X c #8F99A3",
"qX c #8D9AA3",
"wX c #8F9CA5",
"eX c #8F9DA6",
"rX c #9097A1",
"tX c #9197A3",
"yX c #9198A0",
"uX c #9299A1",
"iX c #9198A2",
"pX c #9299A3",
"aX c #939AA2",
"sX c #949BA3",
"dX c #939AA4",
"fX c #949BA5",
"gX c #949AA6",
"hX c #959CA4",
"jX c #969DA5",
"kX c #959CA6",
"lX c #969DA7",
"zX c #979EA6",
"xX c #989FA7",
"cX c #929FA8",
"vX c #979EA8",
"bX c #989FA9",
"nX c #92A0A9",
"mX c #94A1AA",
"MX c #94A2AB",
"NX c #99A0A8",
"BX c #9AA1A9",
"VX c #9CA3AB",
"CX c #9DA4AC",
"ZX c #9EA5AD",
/* pixels */
"2XsX;X+XsXsXaXNX+X2XsXsXxXsXxXxXVX+Xd.8.d.+X+X2X2XsXsX2XsXsXsXsXhXtXhXlXtXU.Z.U.rX>XU.U.&XU.>X;X&XcX",
"d.m.p.p.d.d.p.m.8.d.+XG.G.G.2X2XG.5 ; 5 W d. .d.d.d.d.d.d.G.d.d.U.u.q.U.&Xz. .b q. .C C ! %. . .! J.",
"p.p.p.m.m.m.G.m.8.G.+X+X+XsXsX2Xd.w p W d.d.8.G.d.G.d.d.G.G.G.G.G.Z.U.&Xz. .C q.q. . .C %.q.%.%.<.).",
"d.X.p.G.m.G. Xp.G.G.+X+XsXxX2Xd.W M 8.d.d.8.8.+XG.G.G.G.G.G.+XG.U.U.>XU.q. .q.U.q. . . .%.k.k.<.,.).",
"m.p.m. Xm.m.m.T G.d.G.2X2XG.W p w g 8.d.8.d.d.2XG.G.G.G.G.+XG.G.&XU.z.z.m.P.z.z.C C C C  . .%.%.F C.",
"G.m.m.m.G.m.m.X.2X+X2XsXG.C w M W 8.d.8.d.+XG.G.+X+XG.+X+X+X+X+X5X>X+XP.k.%.! ! C  . .q.8. .q.%.,.E.",
"p.p.X.X.m.m.p.p.2X+XG.d.W g g W z.q.d.d.d.+Xd.d.G.G.G.G.+X+X+X+X X&Xm.X.u > > 8 b C C  .%. .C ! <.%X",
"m.m.p.8. Xm.p.p.rXz.M w p W q.8.d.W G.G.G.G.d.+X+X+XG.+X+X+X+X+X5XP.D 8 8 8 f f C C C  .q.%.C b k.%X",
"k.k.k.P.&X>Xk. .C C g C q.z.q. .d.d.G.G.G.+X+X+X+X+X+X2X+X+X2X2Xk.B 8 B ! c B ! B f T ( c 8 r ! <.).",
"m.k.k.z.U.U. .C w g  .q.u.q.q.z.d.d.G.G.G.+XG.U.2X2X+X+X+X2X+X+X! f f B B B C ,.f f f 8 8 f ! J.J.&X",
"k.%.p.P.U.k.! f  . .q.%.%. .q.z.G.G.G.G.+X+X+X+XG.+X+X+X2XrX+X8.f f B B B B X.k.%.%.k.! ( k.P.P.k.E.",
"k.%.P.>X&X%.C ! q. . . .z.z.z.z.d.G.G.G.+X+X2X2X+X2X2XG.8.W p ; B B ! B B ! %.k.%.k.k.P.m.m.k.( <.J.",
"P.P.P.&Xz.C B ! q.q.q.z.z.q. .g M g M M C W  .8.G.G.q.M 5 5 p w B ! ! ! ! %.%.%.k.%.! %.q.q.q.k.%.J.",
"U.P.p.! f 8 f ! C  .q. .b w 2 w 5 5 5 5 5 5 5 5 M 5 ; 2 p W W 8.! B B C ! %.%.%.k.%.! %.q.q.k.C.<.).",
"! B f 8 8 8 c T w w u w u g C  .C C C C C W W C w 5 5 M 8.W M M ! C B ! %.%.%.%.! %.%.%.%.q.,.( P.4X",
"> > > > g X.%.X.q. .b C  .q. .C M M M W M W C M p 5 g 8.8.C C q.! %.! %.%.! %.%.! k.k.! %.P. XC.F =.",
"T D D D ( o.%.X.~ X.,.,.,.( ( (  .C  .C  .! %.w w C C  .! !  .! ! ! ! ! !  . .%. .%.z.U.P.%.B q 3 G ",
"<.,.o.,.,.,.,.o.,.,.,.( ( T D D C g  .C %.B g 2 g C !  . . . .! B !  .%.q.%.%.k.&Xk.! f r 8 8 q *.R.",
"C.k.,.X.,.p.,.,.a.p.( ( D D ! F  .C %. .q.g w w  . . . . . . . .p.%.%.%.%.! ! ! 3 2 2 2 f B %.p.O.4.",
",.,.o.,.p.,.X.,.( ( D D D D ( (  . . .C u.w g X. . . . . . .%. .c 8 > $ + X X o % > f C %.%.%.+.=.).",
",.,.p.k.C.p.,.( D S c S D ( ( (  . . .C q.2 g z. .%.%.%. .q.u.q.q.C 8 > % $ 2 u C  . .q.q.q.X.! =.3X",
"p.a.,.C.a.,.( D D D S T ( ( +.X. .! q. . .w c q. .%.%.%. .q.q.q.k.B 2 * 2 2 w ! C  . .q.q.q.k.k.=.3X",
"C.,.,.,.,.! D v ( T T X.X.,.,.( q. .q. .C 8 C q. .q.q.q.q.z.u.q.X.f 2 2 8 w g %. .q.q.u.q.q.q.%.2.3X",
"Y.C.o.X.( ( D B +.( T ( o.p.,.,.u.C  .g w 2  .q.q.q.q.q.u.z.q. .c 8 % w B C  .z.q.q.u.u.q.u.q.z.2.4.",
"C.%.D ,.p.D q ( ( +.X.( %.,.( D b C  .g 2 2 g %. .C  .C g f w w 3 3 w g C  .q.%.%.%.%.k.k.k.k.C.4.3X",
",.,.,.X.( D D ( ( T D ( T D D D g g g w % # # $ % % % 2 2 2 2 2 8 8 w B  . .q.q.k.%.%.k.k.k.q.<.1.4.",
"T C.,.D D ( ( ( ( F D T ( D F %. .u +     + 2 g g g f g g g g B u f B C  .q.q.q.k.%.%.k.k.%.%.%.1.4.",
"~ a.,.D D ( ( ,.( ( ( ( +.X.( ( w % + % 2 g C C  .C C C C C B C b C C  .X.q.q.q.k.%.%.%.p.%.X.%.O.4.",
"( o.F D ( X.( ( ( ( ( ( ( p.( q 2 w g C  . .C g g C C C C C g g B !  .%.,.%.%.%.q.%.%.%.q.q.%.%.4.4.",
"C.,.! ( ,.o.( ,.( ( X.*.,.,.D 3 ! C C B b C  . .C C C  . .C C C !  .X.%.q.%.p.%.k.%.%.k.p.%.%.,.1.4.",
",.a.X.X.p.,.( ,.,.X.,.m.C.( c v C C  .C C ! C  . . .C C C B ! C %.q.q.k.u.%.%.k.p.%.%.%.,.%.*.2.1.4.",
"p.E.C.o.,.,.,.o.,.F X. XE.c r  .C C C  . .C W C  .T T C C W q.q.q.p.z.d.q.q.%.p.k.%.%.p.p.,.,.1.2.4.",
"P.X.T X.p.p.8.8.p.p.T G. X; X.c W M W W  .W W W T L W M W 7.d.f.8.8.0.8.7.W 8.d.8.8.8.7.8.7.0.d.' R.",
"p.T T X.p.p.p.m.p.X.X.+XT 5 p.T W M W T W W W W W T W  .7.0.7.0.0.9.7.0.T.T.0.W 0.7.9.9.7.7.7.8.' R.",
"o.X.X.p.p.p.p.G.d.X.m.;X; g X.c W W L W W W M L M M L 8.f.f.0.8.0.0.0.7.7.7.7.7.0.0.0.0.s.s.s.s.^.9X",
"d.p.m.m.d.8.p.m.p.p.;Xd.3 W W M W W W L L L M M 5 M 7.8.0.0.0.d.f.f.f.0.7.7.d.G.7.0.0.0.s.s.T. X<.^.",
"p.p.p.m.m.m.m.G.d.d.+Xw M q.X.8.8.8.W  .W W W C L 8.d.d.8.8.q.d.8.0.d.d.d.d.z.8. X Xs.p.X.W D c H 4.",
"m.d.p.m.m.G.m.m.;X+XG.& W p.8.d.d.8.8.W  . .W W W 0.d.d.d.d.d.G.d.G.f.8.W W W M s c T X.s. X-X:XR.'.",
"G.m.m.m.G. X XG.2XG.W 3 M p.8.d.q.8.8.8.8.8.8.8.W 8.q.d.d.d.8.8.d.G.G.8.C  .d.G. XU.T.U.T.T.G.Y.R.3X",
"p.m. XG. X;XaXaXq.M 5 W c z.m.p.d.d.8.8.8.q.8.d.8.d.d.G.G.8.M 5 5 5 5 p 8.+XG.d.T.m.U.T.U. Xm.Y.C.'.",
"G.2XsXsXrXhX;X .p d.W w  .d.d.G.d.z.d.8.d.d.8.8.W d.d.d.M % & w p 2 p d.G.z.U. Xm.m.G.U.T.G.T. XR.9X",
"xX2X+XU.d. .M ; W d.W g d.G.d.m.G.U.d.d.d.d.q.q.g g 5 * 5 w C U.G.p.z.U.G.G.U.m.;X Xd.U.>X;Xm.p.9XeX",
"m.M c W W C W W 8.8.M M G.+XG.G.U.U.z.z.q.q.d.u.5 w w 2 g  .u.U.d.d.z.z.d.U.>XP.P. X>X>X>X&X&X;XeXMX",
"W w p W 8.8.8.d.q.8.T  .+X;XG.+Xz.z.z.q.q.G.z.q.C q.z.q.z.G.u.q.z.z.U.m.z.G.>XU.P.&XrX>Xz.k.P.&X9XMX",
" .C W q.8.d.p.X.W  .8.m.;X+XG.+Xz.z.z.z.z.>XU.g C q.u. .u.z.u.u.q. .z.U.P.z.&XU.U.&X5XrXhXhXrX5Xk H ",
"W X.8.8.8.d.d.8.M W G.2X2X+XG.G.U.z.z.z.z.>Xz.2 C q. . .%.z.z.z.>XU.U.rX>X>X;XrXhXvXvXdX&Xq.c 8 S *.",
"d.d.d.d.8.8.8.C X.z.2X2X Xm.G.d.U.U.U.U.z.rXU.2  .z.z.q.z.z.u.u.q. . .B f f w 2 2 f ( X.B f c ( ( 4.",
"8.8.d.G.d.8. .M +X+X2X+Xp.p.G.G.U.z.>XU.z.rX>Xw w g g u b u % % 2 8 7 * 2 C  .f C f 8 f f ! X.p.+.R.",
"8.W W 8.M X.q.m.+XG.8.W z.G.d.G.G.m.d.G.>Xz.g % u g f w 7 8 h C X.q.8.p.q.k.f B C C q.q.8.M W B ! 4.",
"sXsXaXxX;XbXbXZXVXxX2X2XxXxXxXNXjXVXZXZXxXU.z.m.hXrX5X5XrXrXhXlXbXjXsXxXhXhXz.&XrX5XbXrXaX>XaX+XqXMX"
};
