/* XPM */
static char *d840df7b7dab4162a10a5ca7c38ce5c9mTBUaLswWeCgDqNb[] = {
/* columns rows colors chars-per-pixel */
"50 50 226 2 ",
"   c #3B360D",
".  c #3D3A0C",
"X  c #363708",
"o  c #3D2E16",
"O  c #3B251D",
"+  c #3E2D1A",
"@  c #372B13",
"#  c #3D3412",
"$  c #3C331A",
"%  c #3D142C",
"&  c #3C1B26",
"*  c #3E003D",
"=  c #3C0637",
"-  c #3C1030",
";  c #3D2222",
":  c #3D362C",
">  c #423D0D",
",  c #41360F",
"<  c #432C1E",
"1  c #433516",
"2  c #463B13",
"3  c #4B3D15",
"4  c #46331A",
"5  c #4A351C",
"6  c #4D3A1A",
"7  c #503F16",
"8  c #533D1C",
"9  c #593E1E",
"0  c #50371D",
"q  c #441C2C",
"w  c #491F2F",
"e  c #42053D",
"r  c #440A3C",
"t  c #470F3B",
"y  c #441433",
"u  c #4A1B34",
"i  c #4B143A",
"p  c #4E1A39",
"a  c #491537",
"s  c #531C3D",
"d  c #5A1E3E",
"f  c #511A3A",
"g  c #432425",
"h  c #452A22",
"j  c #4B2C24",
"k  c #462229",
"l  c #4B242C",
"z  c #4D2929",
"x  c #482727",
"c  c #532C2C",
"v  c #542C2B",
"b  c #4E3222",
"n  c #533424",
"m  c #593726",
"M  c #5B3C23",
"N  c #553029",
"B  c #5B332B",
"V  c #593925",
"C  c #4D2232",
"Z  c #532434",
"A  c #562A31",
"S  c #5B2C34",
"D  c #56223A",
"F  c #5B233C",
"G  c #5C2837",
"H  c #413B39",
"J  c #5D3031",
"K  c #643C2A",
"L  c #6A3E2D",
"P  c #623F26",
"I  c #642C3B",
"U  c #60283C",
"Y  c #653532",
"T  c #6A3635",
"R  c #6D3B33",
"E  c #6C323C",
"W  c #6F3838",
"Q  c #713C35",
"!  c #783C3D",
"~  c #73383B",
"^  c #3E4006",
"/  c #3A4330",
"(  c #44420A",
")  c #4C440D",
"_  c #4B4A08",
"`  c #524B0D",
"'  c #584F0C",
"]  c #4D4112",
"[  c #534315",
"{  c #5B4B13",
"}  c #56411A",
"|  c #5C431D",
" . c #5F4A19",
".. c #574813",
"X. c #5E5011",
"o. c #62461E",
"O. c #644A1C",
"+. c #6B4D1E",
"@. c #644F17",
"#. c #655115",
"$. c #6E521B",
"%. c #6A5318",
"&. c #72541D",
"*. c #5E4120",
"=. c #4A503E",
"-. c #644322",
";. c #6A4625",
":. c #6C4B22",
">. c #6C432A",
",. c #664820",
"<. c #714C25",
"1. c #70442C",
"2. c #744B29",
"3. c #7B4F2A",
"4. c #785422",
"5. c #744231",
"6. c #3E0042",
"7. c #430143",
"8. c #4D0B43",
"9. c #460049",
"0. c #4C014C",
"q. c #4B0645",
"w. c #510D46",
"e. c #51044E",
"r. c #540A4C",
"t. c #5B0E4D",
"y. c #4F1341",
"u. c #541344",
"i. c #5B1C44",
"p. c #56114A",
"a. c #5C144D",
"s. c #5E194A",
"d. c #571A43",
"f. c #4E0051",
"g. c #540154",
"h. c #5A0656",
"j. c #5C0C52",
"k. c #550059",
"l. c #5B005C",
"z. c #5C0957",
"x. c #5F1152",
"c. c #61164E",
"v. c #631C4C",
"b. c #631C49",
"n. c #61065E",
"m. c #650D5C",
"M. c #650F59",
"N. c #631354",
"B. c #6B1B53",
"V. c #6B135B",
"C. c #661655",
"Z. c #731B5A",
"A. c #751A5C",
"S. c #5E2143",
"D. c #632344",
"F. c #6C2B42",
"G. c #6A224B",
"H. c #672545",
"J. c #752A4C",
"K. c #752B4C",
"L. c #743242",
"P. c #7B324A",
"I. c #722351",
"U. c #7A2556",
"Y. c #7C225B",
"T. c #7C2953",
"R. c #5D0061",
"E. c #5F0069",
"W. c #620164",
"Q. c #690567",
"!. c #660961",
"~. c #6B0C63",
"^. c #65006A",
"/. c #6A016C",
"(. c #6D0A68",
"). c #750B6C",
"_. c #73096C",
"`. c #6E1061",
"'. c #731263",
"]. c #7C136A",
"[. c #7B1864",
"{. c #660072",
"}. c #6D0073",
"|. c #6E0079",
" X c #640078",
".X c #730175",
"XX c #790675",
"oX c #7D0C72",
"OX c #75007A",
"+X c #7B017C",
"@X c #544E4B",
"#X c #59564F",
"$X c #625D59",
"%X c #83532C",
"&X c #86285D",
"*X c #81146D",
"=X c #81196A",
"-X c #810C76",
";X c #82047E",
":X c #84097B",
">X c #851373",
",X c #90137D",
"<X c #8A2268",
"1X c #6F0080",
"2X c #750082",
"3X c #7D0083",
"4X c #7D0089",
"5X c #840184",
"6X c #890386",
"7X c #83008A",
"8X c #8A008C",
"9X c #880881",
"0X c #930B88",
"qX c #860091",
"wX c #8C0092",
"eX c #930194",
"rX c #95009A",
"tX c #9A009C",
"yX c #990693",
"uX c #931082",
"iX c #9A00A2",
"pX c #A101A1",
"aX c #A500AC",
"sX c #AB00AE",
"dX c #AB00B7",
"fX c #BD00C3",
/* pixels */
"Q.OXg.= * 7.k.OX.XW.0.= 7.* = k.3X~.~.`.W.9.* * 7.* e 9.l.OX6XOXn.l.e 7.e 6.7.7.* 7.7.9.l.^.j.a.t.t.",
"-.-X5XW.0.9..XOX^.Q.R.0.* 7.g.5XuX>.#.#.U k.0.7.* 7.0.k./.5X6X+XOX3Xk.* e * * * e k.l.W.4X>X:.<.<.&.",
"| M -X3Xl.g.l.l.^.W.l.9.9.0.l.iXP.{ V.M.m m.l.0.0.k.g.g.}.3X;X.X}.l.R.0.9.0.0.9.0.l.g..X].+.;.-.} d ",
"]._ N.3XW.h.g.l.W.l.e.0.f.k.h.OX6X(.^.4XL.m.k.F M I XXl.l.+X.Xl.t.M K K V B n 5 C f.e.3XY.$.,.C Z M.",
"XX9 V.7X.XQ.|.3X8X-X;X3XOXW.k.l.+X.X5X3XA q.d +.+.X.G.4Xh.r.G ] -.:.:.,.o.} | 2 [ C g./.3XE ` u.b.A.",
"7XZ.B.3X/.3XZ.A.;X;.M./.5X.XOXl.l.l.Q./.l u.O.O.Z Z H.|.u 2 +.2.2.<.;.9 [ k h a Z ] w g.OXP.` s.I.p.",
"3XI.B.E..XV.$.<.L [ !.l.l.l..X/.R.l.l.|.G N.-.Z OXm.U OX4 ,.2.3.3.2.2.5 k p v Q.C.Z x q.^.E ) y.H.i ",
"E.D.d {.wXT.4.;.9 9 !.l.^.z.r.r.r.W.Q.|.S u.9 N.7X`.f d.| V L %X2.<.-.x 8.a S.7XH.c.Z w.k.F ] d.B.i ",
"l.y a.OXeX&X#.M 8 2 !.R.(.K O.O.[ j.k.R.u.i C 3X|.N.q q ` D.U.&.;.o.7 1 j.W..XZ.` S.b h l.g.0 l W.g.",
"R.u a.7XiX9XM ] C A j.{.F $.L H.@.oXW.g.k.8.x W.g.g.r q.3 s U.$.o.N j.9 6 !.5X9 2 ] 2 C |.k.8 g k.0.",
"R.a a.rX=XL L 8 i u 8.r.;.-.m.2XE ).}.9.6.0.0.g.g.g.g.l.6 F &X..n R.7X_.6 n Q 1 # V.N h 3XQ.w.e.0.0.",
"k.h.^.+X$.| Q.+X4XC e 8.@.| n.4XG ].^.9.q.i r.{.3X+XW.0.4 s.U.b.G }.'.].,.o.7 d OX}.D h .X.Xk.0.0.7.",
"k.k.^.-X>.Q.eXeXwXC = u.~ Y z..Xz p.f.e.M ..n i.n.{.k.9.< }.P.[.A j ..+.<.:.2 a.2Xl..X2 j {.k.7.7.0.",
"h.k.^.).Y qXeXn.k.& * d &Xd t.{.k 8.h.2.4.3.<.' w.W.l.7.h .X~.XXM +.2.;.9 M } < .X.X}.a.. h e.9.0.g.",
"h.g.W.(.I wXQ.}.|.O = l.5X.XOXW.f.g.].$.E R Y >.9 r.g.0.g .X^.r.9 1.9 2 < 2 4 x |.W.l.7Xs y 9.0.0.l.",
"E.l.l.W.+X.Xk.+X.Xu.q.{.+X3XQ.e.0./.Y.].sXiX7X[.m ) p l.h XX/.f | O.1 y N.j.G 1 ^.W.n.3Xi.a f.l.W.}.",
"I.7X}.h.OXW.W.l.Q.7X/.W.W.l.0.g.|.K.5.fXtXI.V v N 2 < e.l /.l.g.B J.. R.{.W.z i W.W.k.|.s a {.oXL.F.",
";.R '.{.h.l.l././.l.f.7.g.k.W.OXY.$.>.R W ..x m.C i # 5 9 f l.z.H.).X h.l.l.W.l.W.h.f.r.] V.;X3.$.:.",
"| O.} /.W.W.+X8X5Xl.* w  .5 h.2XP.:.2XY.{ j E.5Xz.+ 5 9 o.B l.{.OXv.d.^.l.W.OX.Xl.0.0.y [ >.:.! L.,.",
"d N > p.+X.X5X8X.Xf.7.K i.5 h.2XJ.$.I.L.) o .XV.1 1 1 2 7 3 S s.3Xm.!.3XOX5X/.XXg.* g.j.:.&.&X7X3XB.",
"l.k.h 2 ^.Q.OX.Xr.n R T  Xx z 4XP.,.B.f t.M.7XG.> 1 w r.c.8 3 . y.3X.X.X5XR.g.0.* 7.Q.oX&.<XaX.XW.^.",
".X7XU 8 ^.OXl.r.6 M M j.l.C 8.OX5XR ^. XI.~ Q 5 j 5 ] ).8XI b.2   d.^.h./.g.e.8.0.0.+X5.:.<.1.2.D.k.",
"k.OXE M Q.l.f.8.y.|.S +X4XOXf.l.3XU.6XpXyXiX>X^ n.+X6 V.XXF v.[ 2 w g.f.g.v ' S k.{.6X+.-.I.P.%.$.).",
"W.4XE P }.k.l.g.k./.4 S.F w 0.0._.wXpXtX7X+XI > t.tXC.a z.A i.[ 2 p E.u d.{ G.OX.X5XyXL 9XdXtX=XL.E ",
".X5XA M .X.X.Xl..X8X0X'.~.c # i 3XeXoXR W N 2 S.8XOXi.i /.Q.i.[ 2 p /.8.i F.8X7X.X+XyXE aX9XQ.dX&X` ",
"W.3XA 5 .X^.R.l.tXfX0XK *.U.C W.8X5X-.{ 0 ] N 7XwX.X.XR.5XwXI.] 1 s ^.f.a S.4X+XR..X:XR tX3Xl.3XU 3 ",
"k.4XE 9 .X+Xl.+XsX,X| ] A m /.^.7X+X:.b 0.f ( [.7Xe.Q..X5XOXi.3 . Z /.0.i D ^.^.l..X;XY qXOXR.a.( 4 ",
"(.OXK.3 .X5Xl.5XtX).m ( V.S.!.Q.8Xn.5 0./.h.^ x.^.9.R.5X5X^.Z 2 p.z.k.f.i C k.R.k.l._.J 3X.Xg.g.j 8 ",
"l.}.G 5 OXR.k..X6X3Xj ( b.D r.R.5X(.h k..Xh.  a 0.h.h./.+Xl.i.1 E.{.e.l.u.l k.0.e.g.h.N ^..X^.R.F  .",
"g./.c.z.k.g.f.Q.5X7XF 2 w.x r f.W.Q.b f.l.e . y g.W.g./.W.l.|.x Q.+X.X.XV.k g.k.l.l.e.5 9.l./.{.F.$.",
"g.Q.|.k.g.0.0.g.W..Xn.h k.a 0.0.g.q.g g.l.^.C % f.f.g.l.OX.XW.u.a W.+XwXV.l /.3X+X3XW.d.0.7.0.9.A O.",
"h.k.W././.l.W.l.g.^.XXXX+X|.g.g.0.g.g 0.0.OXp.& 7.0.W.+X6X/.l.l.g Q.+XW.p.4 S F.5X5X3X/.n.9.7.6.l 8 ",
"k.l.+X;.R .X3XW.l.OX8X-X-XoXOXQ.Q.g.; 0.9.9.% % 0.l.E..XQ.g.W.l.0.k.k./.N *.O.-.m A.OX}.3XR.0.9.q 2 ",
"0./.E Y B d ^.W.3X7X[.$.| ] n..X.Xq.g f.f.f.i q g./.l.l.g.e.g.0.0.g.l.+X>X%.o.z u S.7X+X5X+XW.0.q   ",
"0..XF.{.`.D.}.3X*XL.+.| | 0 e.l.k.e z r.z Z b v..Xg.h././.R.k.0.0.e.W.wX>XE J a r j.OX5XQ./.W.W.q & ",
"e.^.U !.s.v.OX7XI.F.L.h.D . l.^.g.7.5 P $.| ..<XaXOXe.^.5X+X/.l.g.W.OXT.=XB.i.= f.W.XX7XW.k./.7Xu - ",
"0.l.x ~.8X.X;X7Xs.N..Xg.W.i.m.7Xl.7.| 3.3.;.@.Z.dX,X` i.5X+X+X.Xl.+XQ 1.).D {.0.r.z *.uX+X/..X3Xf e ",
"0.g.l !.5X{..X5XW.^.l.R.5XrXx .Xk.g.;.3.;.;.:.T 8X8XT ` .X+XOX}.W.T +.1.~ i.w.x ] | <.R OX3X.X}.|.y.",
"0.0.k r.R.k.l.}.l.k.W.R.3Xf N.OXR.I ,.| ;.9 -.$.Q eXeXY A |.}..X).&.-.o. .-.B.Z.<.2.,.z R././..X5Xh ",
"9.9.; r f.e.k.h./.l.l.g.9.O W.Q.r.[.;.9 M 6 9 M 9 ~.8XF.2 k.h.^.1.-.M 8.g.g.2X+X' y.m j W.3X5X.XOXu ",
"7.6.% e 7.0.0.g.g.g.W.l.0.g a C  .-.-.-.5 *.3 3 2 ` ~ I ] 8.k.g.-.`.F u.u.c.V.B.M (.D.c qXoXs.r.^.8.",
"0.7.% 7.f.g.R./..X.X.X.XR.; > o.| 1 # 6 8 } h a y.x.S ] *.n & r.A qXD p.} ..2 X J.qX(.Z ).} ..} r.h ",
"9.7.r 0.l..X5XoX5.Q 5.K.2Xg.5 -.4 t # q x ( k OX.X|.u.] 4 6 ] i g /.Z _.B.k l 2 D.E.r.C .Xm.B ] p 0.",
"9.9.0.g..XeXpXL M v N ` U./.5 ) - 9.@ y y 5 C 2X9X8XV.  @ h 3 y.w f.k XXm.q k < l./.h.C E.E.b ] i g.",
"0.0.0.h..XtX7XB 1XOX2Xv S.R.h I.w.g.z.q ^.h.g ^.2X6Xa.X y 8.. 8.l.f.; h.p.q l ] q.{.z.g R.l.p [ z k.",
"0.7.0.k.OX].N 4 J '.7X`.F |.; OX5XW.x.w }.w.u /.}.l.0.O g.z.X 7.E.0.k w.q.q.G G.6 w.k.l /.k.G <.O.B ",
"0.0.0.B >.#.G.XXm..X}.s.Z OXg k.W.R.y.  + + C Q.h.r.0.; z.j.X r f.k.u !.^.|.I _.i.# y.x k.A 4.>.} B.",
"h t /.Q m H.L .X2XXX4 # $   h u.N.p.$ S N 3 6 2 $ 1 $ # + a X g.2X^.7XeX5Xp.h 1 < 1 4 4 1 ;.4.D.Q.+ ",
"1   Z Y |.4XA Z i b ] M -.*.} ] . , 2 I W <.2.;.-.9 9 9 8 2 1 Z D.s i.i.Z ( 6 8 *.-.;.;.;.2.6 x s.< ",
"#X: $ 4 C x $ # # 1 4 4 5 4 H @X$X@X:   2 0 5 5 6 5 5 1 5 5 4 # . $ / =.@X: $ 1 5 b 6 5 6 4 1 $ / #X"
};
