/* XPM */
static char *_3414c1b8f2a4453c2b4577c2130e5deHINZZspwj8ztap3k[] = {
/* columns rows colors chars-per-pixel */
"50 50 127 2 ",
"   c #4A525C",
".  c #4E5661",
"X  c #535C65",
"o  c #565E69",
"O  c #585E6A",
"+  c #576069",
"@  c #5B636D",
"#  c #5E6671",
"$  c #5F6871",
"%  c #60676F",
"&  c #616774",
"*  c #636C75",
"=  c #686F77",
"-  c #666E78",
";  c #696F7B",
":  c #677077",
">  c #677079",
",  c #6B747D",
"<  c #6F787F",
"1  c #70777F",
"2  c #717A7F",
"3  c #677580",
"4  c #6E7780",
"5  c #6F7882",
"6  c #707781",
"7  c #727B84",
"8  c #787F87",
"9  c #707588",
"0  c #747E8A",
"q  c #777F8A",
"w  c #767E88",
"e  c #757E89",
"r  c #787F89",
"t  c #787E8C",
"y  c #778085",
"u  c #798086",
"i  c #7A8187",
"p  c #798287",
"a  c #778089",
"s  c #74808C",
"d  c #76808C",
"f  c #76828E",
"g  c #77838F",
"h  c #76818A",
"j  c #798088",
"k  c #7A8189",
"l  c #79808A",
"z  c #78818A",
"x  c #78808B",
"c  c #7A818B",
"v  c #79828B",
"b  c #7B828A",
"n  c #7B818D",
"m  c #79838C",
"M  c #7B828C",
"N  c #7A838C",
"B  c #7A828D",
"V  c #7A808E",
"C  c #7C838D",
"Z  c #7C828E",
"A  c #7B848D",
"S  c #7D848C",
"D  c #7E858D",
"F  c #7C858E",
"G  c #7E858F",
"H  c #7D868F",
"J  c #7F868E",
"K  c #7A838C",
"L  c #768690",
"P  c #7C8290",
"I  c #798591",
"U  c #788691",
"Y  c #798792",
"T  c #7A8692",
"R  c #7B8793",
"E  c #7E8490",
"W  c #7F8591",
"Q  c #7F8690",
"!  c #7E8790",
"~  c #7E8494",
"^  c #7D8690",
"/  c #7F8891",
"(  c #7D8995",
")  c #7E8992",
"_  c #80878F",
"`  c #808791",
"'  c #828991",
"]  c #818892",
"[  c #808992",
"{  c #818A93",
"}  c #838A92",
"|  c #818B94",
" . c #838A94",
".. c #828B94",
"X. c #808A96",
"o. c #848B95",
"O. c #838C95",
"+. c #858C94",
"@. c #858C96",
"#. c #848D96",
"$. c #868D97",
"%. c #858E97",
"&. c #878E96",
"*. c #828B94",
"=. c #888F97",
"-. c #868C98",
";. c #878E98",
":. c #868F98",
">. c #858E99",
",. c #898F9B",
"<. c #879099",
"1. c #86919B",
"2. c #899098",
"3. c #89909A",
"4. c #88919A",
"5. c #8A919B",
"6. c #8C939B",
"7. c #8B949D",
"8. c #8D949C",
"9. c #8A939D",
"0. c #8F989F",
"q. c #90979F",
"w. c #8894A0",
"e. c #8C97A1",
"r. c #9198A0",
"t. c #9099A2",
"y. c #929AA2",
/* pixels */
"$.5.+._ =.=.=.q.' +.8.8.2.2.8.q.r.-.r 6 7 { | $.<.<.<.<.<.<.<.<.$.<.:.<.7.O.a / | / H A A A / ) | w.",
"7 w 7 2 8 8 7 8 1 u i 7 i ' +.Z r % O & , , > 7 a 7 w 7 y 0 y w H a 7 w a 5 * * 5 5 , > , 5 5 4 5 s ",
"w 7 7 8 7 8 8 8 1 b Z i n +.2. .b * = 7 m e 7 / a a a a f b f b f a A H y 5 7 e 7 4 , > 5 7 7 5 0 L ",
"8 7 8 i 8 8 _ 7 8 b _ Z  .-. .8 * & < < < 5 5 a A a a A A H H A A b / H < , 7 a 7 < < 5 5 7 7 5 0 L ",
"i 2 8 i 8 8 8 1 W i 8 W -.Z 1 % & , a 7 5 b A / a a a b m m m m H y a b 7 7 a 7 > , , , 4 4 5 5 > 0 ",
"i 2 8 i 8 8 8 1 W '  .-.Z 1 & & < , 7 7 a A a A A A b A H H H H / A / I a 7 5 5 > > , 4 5 5 5 5 5 f ",
"u 2 2 8 i 8 1 1 b W W 9 ; & ; 1 a 5 7 a A a 7 b A A b A H H H H / / a < * + + + - > , , 5 4 , > 0 Y ",
"2 i 2 2 _ b 2 8 -.b ; & & 6 9 9 5 7 a a a A f H / A H H H H H H Y a : @ $ * $ * , , , < 7 7 , * 0 ( ",
"u 1 i i 7 i n 1 ; * & ; 6 8 9 6 7 7 b m A ! A ! A A A ^ / / { { 7 > $ * > * > , > * > , > @ @ , 0 I ",
"b u 6 8 n n 1 & & = 1 6 9 8 8 8 a a b m A A A ! / | { / H A / / > * * : , > > 5 $ $ $ $ $ * 4 A 0 I ",
"i 9 9 i Z 8 ; & 1 6 6 7 6 1 6 8 f m A m A A ! / / A m A $.<.A < $ & * > : > < 7 7 7 7 < < 5 7 a 9 0 ",
"6 8 Z W Z 9 = 1 6 6 1 1 6 7 n i y a a m A A / / A | <.A 5 > * $ * > > - * , 5 7 5 5 7 h a h 7 5 5 L ",
"t Z 9 t 9 ; = 9 1 9 6 7 7 2 = = * * > > > , , < a A 7 > $ @ * * > , , - > 4 5 5 7 , , 5 7 5 7 a 9 L ",
"~ t 9 9 ; & & ; = 1 1 1 = % % % @ $ @ $ # $ $ * > @ + @ > 5 < , > , , , 5 5 7 < m 7 < 5 7 5 5 7 0 L ",
"9 ; & & & & ; ; & & & % % = = 1 > > , > > > , > @ $ * , , > > , > , , 4 7 5 5 5 > , , 5 7 7 0 5 f ( ",
"O O & & & ; 9 ; 6 1 = = 1 7 1 = * > , , , > , , * * * < 5 , > 5 < , , 4 , < 4 7 5 7 5 < 5 a g t - 3 ",
", - - , , 4 5 , , 5 7 7 5 , , , 5 * < > > 7 , : @ * , 4 , , , , 4 4 3 4 3 ; , , 6 6 7 t e 7 - $ # > ",
"7 7 4 5 5 7 7 7 5 5 5 4 , , > > < * 5 , > , $ @ * > 4 , , , 4 4 ; 3 ; 4 6 9 9 e m t 7 - # O # # 3 L ",
"7 7 5 5 7 7 7 7 w 7 < > > > > , , , 5 < < : @ $ , , 4 , < 5 4 4 5 4 4 4 6 , ; ; - @ X O - 4 4 , 9 s ",
"7 5 5 5 7 7 7 5 7 , > - , , < 4 , , 4 , 5 * & 5 < 4 4 < < 5 5 4 * # O X .   . . . @ & , 5 9 7 7 3 s ",
"7 7 5 7 7 7 5 4 > > * * - , < 4 , , 4 , 5 # * 7 < 5 5 5 5 7 5 5 7 - # O o X + $ - 4 7 9 7 4 4 4 0 L ",
"e 0 7 7 7 5 , > > > * > , < , , 5 5 7 < 5 @ > 5 < 5 5 5 5 7 5 5 7 > # @ @ # * , 5 4 , 4 7 w 0 7 3 L ",
"a 7 7 7 4 , > > , , < , 5 5 5 5 7 5 7 , , + , 4 5 5 7 7 7 7 7 5 , $ @ @ # $ : < ; 7 e w 4 , 7 e 0 Y ",
"a e 7 4 4 < , > , , , 4 < 5 5 5 5 , < * * X 7 7 7 7 h 7 5 7 7 7 * @ + $ * - , h 9 5 < 4 7 e 7 5 9 L ",
"A 4 > 5 w > * , , 5 , , 5 5 > > $ > > : @ # > 7 , < , , > * * $ @ # # $ > 5 5 5 5 7 5 h s 5 y s 0 Y ",
"7 7 7 5 < * * 5 , , > , , , > , > : : $ + + X X + + + @ @ @ @ @ # # $ : , < 5 5 7 5 5 7 5 y 5 5 3 L ",
"4 e w , > > , 7 5 > , , , , , , < $       X @ $ * $ * $ * * * * $ : : > < 5 5 5 5 7 5 5 5 5 5 < 3 h ",
"5 7 < - , 5 4 , 5 > , < , , < > + + X + @ * > , , , , > > > > > $ : > < 4 5 5 7 7 5 4 y 5 5 5 < 3 L ",
"7 5 > > 5 7 , < 5 , , 4 < 5 4 # @ # $ > , 4 , > : : : , > > : * : : < < < y 7 7 < < < < < 5 < 3 3 s ",
"7 5 < < 7 , , 7 < , 4 5 < 5 > @ < , > > * > , 4 > > , , < , , > , < < 7 < 2 < < < < < < < < < 5 3 s ",
"7 7 5 5 7 5 , 7 5 < 5 7 7 , $ : > > , , , , , < , , , > , > > , < y 7 7 7 < < 7 2 < < 7 < y y 3 s L ",
"e a 7 5 7 0 5 7 5 < 5 a g > $ < > > , , , , , , , , > : , , 5 5 < < y y 2 7 < y 7 7 2 7 < y < 3 , s ",
"H 7 , 5 0 7 7 5 7 7 < A A @ < > , , , , 4 , , , , , , : < < 7 p 2 2 y 2 < , < y < 7 5 7 5 5 7 5 3 L ",
"7 , , 7 e y 7 a a 7 7 ! > $ 5 , < , , 4 4 5 < , , , 2 2 2 2 2 2 p 2 2 2 y y y 2 7 2 7 5 5 5 7 5 3 Y ",
"5 5 5 e a 7 7 w 7 5 g / @ * 5 , , , , , , 4 , , : : : 2 y y y 2 2 2 2 y y 7 < < 7 7 y 7 7 h y h Y ( ",
"7 7 w a a 7 7 0 7 7 ! 7 @ , < , 4 4 , , , , , : % , 2 2 2 2 y 7 y y y 2 < 2 7 A 2 7 7 7 y a a a 3 L ",
"y 7 7 a e a y a a b ! * - 5 , 5 5 5 5 < < , , , : 2 7 7 5 7 7 y y 2 7 7 h y 7 2 a b w 7 5 , > > 3 L ",
"A a 7 7 e a a w / ! a + , 7 5 7 7 5 5 5 4 5 5 < < 2 y y 7 y p a 7 y y y < < , > : > , 7 a A / / L ( ",
"A b a y a A H A A a , $ , 7 7 w 7 7 5 5 4 5 5 , < 5 y 7 h y 7 5 m p y , : , y / A m m H A m a g s L ",
"e a a f H { $.<.5 > $ > > 0 y 7 y 7 7 5 7 5 7 5 < y y h 7 7 > # @ @ # : 5 m a 7 a a m m m m v v L ( ",
"H / | | 7.7./ > $ a 4 # 5 a 7 g 7 a 7 7 a 7 a 5 < 7 e 7 > @ o # , @ & 7 m A b e b A A A A a A a L ( ",
"7.<.| A 5 > * # > 7 , * 7 A w a a A 7 a 7 5 7 5 * * # @ @ & > m w 7 w m a a A b / A a a / / A 7 ( ( ",
"A , * : > > < 7 y 5 , , a H b a a a 7 h 7 5 a 5 # & # # : 4 e m 7 w m t 7 f ^ t a A A / H A / / w.e.",
"* @ * 7 a 7 5 5 a , > 7 m A H A a a 7 a 7 a A 4 - 4 7 7 e m 9 7 b e e e t m ~ e A / | / a w m Y ( ( ",
"< 4 7 a 7 5 5 7 < > 5 H ! A A A w 7 5 7 e m P * * 5 5 4 5 0 9 5 7 4 4 t P I ^ ^ A H ) | :.:.{ ! $ 3 ",
"7 7 5 4 , 7 a a * , b | / A m a b w 7 b e ^ m # ; 7 5 4 9 0 t f P t ~ ( P t ^ o.-.<.7.<.! 5 * # > 3 ",
"7 5 7 a m a 5 * 4 a { / A m b a H w w b e ^ ~ O 5 0 0 9 t t 7 9 9 5 9 3 # # # # # - < , > * : , 3 s ",
"e 7 7 a 7 4 < , A | | m 7 a a A m e a H e ` ] # # * & & * # O o # @ # O # 4 5 - > * # # : > 5 5 , L ",
", 4 , 5 > < 7 p S b 2 < 7 b a a m a y p ! w & O & & - & # O * , 5 7 9 7 4 7 * > > > 7 < 5 , < > , s ",
"<.<.<.7.O.9.0.y.0.8.+.{ 9.0.7.7.9.0.y.y.7.H 7 w ,.,.,.-.-.,.e.t.9.9.9.1.-.9.m A { / 9.$.:./ :./ ( 1."
};
