/* XPM */
static char *_2747156a3534d66f51367fc38c6f5faHiAczW4kiZcIE734[] = {
/* columns rows colors chars-per-pixel */
"50 50 120 2 ",
"   c #767D85",
".  c #787F87",
"X  c #7D848C",
"o  c #7F8690",
"O  c #7D8A92",
"+  c #81868F",
"@  c #82898F",
"#  c #838790",
"$  c #858B93",
"%  c #888E97",
"&  c #858F98",
"*  c #8B8F98",
"=  c #879097",
"-  c #8A9197",
";  c #86939B",
":  c #8D949B",
">  c #8F989F",
",  c #90969E",
"<  c #91999E",
"1  c #8D97A0",
"2  c #8E9AA3",
"3  c #9397A0",
"4  c #929FA7",
"5  c #919DA6",
"6  c #959CA4",
"7  c #949DA4",
"8  c #969DA5",
"9  c #959EA5",
"0  c #979EA4",
"q  c #959CA6",
"w  c #969DA7",
"e  c #949EA7",
"r  c #959EA7",
"t  c #979EA6",
"y  c #969FA6",
"u  c #939AA2",
"i  c #989CA5",
"p  c #989FA5",
"a  c #999DA6",
"s  c #989FA7",
"d  c #9A9EA7",
"f  c #989FA7",
"g  c #919FA8",
"h  c #949EA8",
"j  c #959FA8",
"k  c #959FA9",
"l  c #979EA8",
"z  c #9B9FA8",
"x  c #95A0A6",
"c  c #97A0A7",
"v  c #99A1A4",
"b  c #99A0A6",
"n  c #98A1A6",
"m  c #9AA1A7",
"M  c #99A0A6",
"N  c #93A0A8",
"B  c #93A1AA",
"V  c #94A1A9",
"C  c #96A0A9",
"Z  c #96A0AA",
"A  c #97A1AA",
"S  c #95A3AC",
"D  c #97A4AC",
"F  c #99A0A8",
"G  c #98A1A8",
"H  c #9AA1A9",
"J  c #99A0AA",
"K  c #98A0AB",
"L  c #9AA1AB",
"P  c #98A2AB",
"I  c #9BA2AA",
"U  c #9CA0A9",
"Y  c #9CA3A9",
"T  c #9DA1AA",
"R  c #9CA3AB",
"E  c #9EA2AB",
"W  c #9BA4AB",
"Q  c #9AA5AB",
"!  c #9DA4AA",
"~  c #9EA5AB",
"^  c #9BA2AC",
"/  c #9CA3AD",
"(  c #9FA3AC",
")  c #98A5AD",
"_  c #9AA4AD",
"`  c #9BA5AE",
"'  c #99A6AE",
"]  c #9DA4AC",
"[  c #9EA5AD",
"{  c #9FA6AC",
"}  c #9DA4AE",
"|  c #9EA5AF",
" . c #9DA6AF",
".. c #9FA6AE",
"X. c #9DA4AB",
"o. c #9DA7B0",
"O. c #9FA6B0",
"+. c #9FA5B1",
"@. c #9EA8B2",
"#. c #9EABB3",
"$. c #9FACB4",
"%. c #A0A4AD",
"&. c #A1A5AE",
"*. c #A0A7AF",
"=. c #A2A6AF",
"-. c #A0A7AE",
";. c #A1A8AE",
":. c #A0A7B1",
">. c #A3A7B0",
",. c #A1A8B0",
"<. c #A1A8B2",
"1. c #A4A8B1",
"2. c #A4ABB3",
"3. c #A6AAB3",
"4. c #A1AEB6",
"5. c #A6ADB5",
"6. c #A4ABB3",
"7. c #A8AFB6",
"8. c #ABAFB8",
"9. c #AAB1B7",
/* pixels */
"E >.E d %.=.=.3.d U =.>.>.( =.8.3.z 3 * 3 H H H >.} } ,.,.,.,.,.,.} } } } H 6 d E H z C z l z H A @.",
"3 u 3 , 3 3 3 d 3 3 i i i U T T i # # # = > > u u u u u u 8 u u u u 0 8 0 < : = 3 = = = : = : > 1 7 ",
"u 3 i i 3 i d i 3 U ( d d &.>.=.3 # * 3 u u > H 8 8 8 8 8 l 8 c H 8 c H u > - : 6 : : : , 3 > : 1 k ",
"3 , 3 z 3 3 d , 3 i U U %.=.( i * # * 3 u u , H 8 8 8 8 H n H H 8 H 8 8 u > u 6 3 , = : > , > > 1 k ",
"i 3 i d i 3 3 , U i 3 U >.U 3 # * * , , , i u d 8 8 8 8 d C d 8 0 8 8 7 1 3 u 8 * * : * : > > > 1 1 ",
"i , i d d d i , U U ( =.z * # # * < d < < m 8 H n H c H H H H H H ~ H 8 u > : = = = : : > 1 u 1 1 k ",
"3 3 3 3 i i , , i d U 3 * # # 3 < < < < u d 8 d 8 8 8 8 d H H n H C u : # # # X * : : : : > : * 3 k ",
"3 i 3 3 d d , 3 %.i * # * 3 3 3 i * < d z m u H H H H H H } H H c u : o o # $ $ = : : : 3 3 = $ q K ",
"3 3 3 3 a T i * 3 # # * 3 3 3 * 3 3 i a d d d d 6 z E E z E %.( u % $ = : $ $ = = = * * $ $ $ = 1 k ",
"i 3 3 3 i i 3 # # * * i 3 3 3 3 a i a d d d d d =.%.z i z ( E d = $ o = % $ * 1 $ # # X $ $ = u u A ",
"3 3 , d i 3 * # 3 * 3 3 3 3 3 i a a d d d d U T d d i z %.%.d , $ $ % $ % % : 3 > = > > u , u 8 1 g ",
"* 3 i E i 3 * * 3 3 * 3 3 3 i z i a d d d T E E z ( %.z 3 * $ # $ % % % % : 1 > 3 3 u u u u > > 1 k ",
"i i i i 3 * * * * 3 3 3 3 3 * # * * * * * * 3 3 d d , * # # # * * = * * = 1 3 : 2 > - : - u 3 > 1 7 ",
"i 3 3 * * # * * * 3 3 * * # # # X # # # # # # # % # X # * * * , * : = : > u 3 : , , : > > u u 2 2 8 ",
"* * # X # # * * # # * # # * 3 3 * * * * 3 * * * # # # * , , * * * = - : , > : 3 = : , > , u > : 8 D ",
"X X # # # * 3 * 3 * * * * 3 3 # # * * * * * * * # # * * , * * , : : : 1 : * - 1 3 3 : : > u c c = > ",
"- = = = : > > > * * , , 3 3 * 3 * * * * = 3 > * # $ : : * : : : - : : : : : : : : 1 8 8 8 > $ O O ; ",
"u > > : > , , , 3 , , , * 3 * * * * * 3 > = $ X $ = : : : : : : : : : 3 u u u l ^ u = $ o # # $ ; 2 ",
"u 1 > > : 3 1 u i 3 , * * * * * * , , , > $ # # = : : > : : : : = = * = % % % % $ # X X # = > > 2 g ",
"> > > 1 3 3 3 3 , : * * * * * 3 , * , , : $ $ > > > 3 : : : 1 : > $ X X .       X X # > 3 u 3 > 2 2 ",
"> > > u u u 1 > % $ * % * 3 3 3 , - * > * # $ 3 : > > : > 1 , > > $ X X X . X @ = > 3 3 1 > - > 1 g ",
"u u u 2 2 : * $ % % % * * * * 3 , , > 3 = # $ > : , : > : 3 3 : < = X @ X @ @ - = : , > > : u 8 2 g ",
"u u > > > * % $ : = : : , , 3 * , , , > * $ = u : , 1 , > 3 3 : > # X o @ # - > > : 3 3 , > : 1 2 g ",
"x u > > : : : * : : : > 3 3 3 3 - , * $ # o = 6 > 3 3 , > 1 3 : $ X X # = - - < , > 3 1 , u u 6 2 g ",
"2 > : > > = $ : : : : : : 3 , * $ = = $ # o $ : * * * * % $ $ $ + X @ @ - < < < < - : < < < 7 < 2 S ",
"> > > : : = $ > : = : * * * : * = = $ X X X X X X X o X X X X X @ @ @ - - < < - < < < < < < < > 2 g ",
": > > : = * - > : : * : * * * : : $ X     X o # # $ $ * $ $ $ $ - @ - - < < - - < < : < < > : : 1 g ",
": > > : - = > < : : : = , , : * # X   X X # ; : = = = = = * = = @ - - - < < < < < : < : < < : < 1 2 ",
": u > $ > 3 > : : 3 : * , 3 : # X # $ = : : % % : = * * * * $ $ - - - : < < < < : - < < : < : > O 2 ",
"> 2 : * : u 3 : * , 1 : , 3 * X = : : : : = % % : = = = = = = : < - < : - < : - < : < : : > : : g g ",
"> u > : > > > : , : : 3 3 , % $ > : = % % * : > * * * $ * = : = < < : < < < : < < : - < > > > 2 2 g ",
"> u 1 > 3 > : 3 3 * 3 a i * $ : % * = : : > : * : : : : : - : : - < < < : < < v - < : < > : > 2 O g ",
"7 > : > u u 2 , = u u u 8 # = > : : : : : 1 : : & * , , - < < < < : < < , - < < < , : < , < < 0 : g ",
"u : = > u u , u 6 u 3 H = # > = * 1 : : : : : : & 1 - , < < < - < < < < d u < , < < < < - - : - : B ",
"> > > 3 u u u u 8 u u _ # $ , % : * : : : : : * $ % * , < v < < < < < < u < : > : : , < u 0 v v 7 S ",
"> u u u 7 u u u 3 u u u $ * > * 1 1 : - : : : : % % - , < 0 < < v < - < < < 0 d < 0 < < < < < < 2 B ",
"3 6 8 6 6 u u u 8 8 8 $ = = 3 : > : : : > - : = - < < < < < < < - < u u 8 u u u 6 u > > > > = : : 2 ",
"u 6 8 6 u 6 8 u H C 8 X : > 1 u u 1 > : , > , : - < 0 < < < < < < 0 8 , > = : = * = : u u c 8 H C _ ",
"u 6 8 6 6 H z c H u 3 # $ 6 u u 3 3 > , > : : , - , < 0 0 < < , 8 8 u > : , u 6 6 6 8 H n H H H l S ",
"u 8 6 6 z ^ } } u # $ = # z 6 > 3 , > , , , > < < < < < < , % @ X X # = > 6 d 6 8 8 c d c 8 c u 2 B ",
"8 } =.} } 2.E > # 7 : # > 6 u z < < < < 0 < : , : u 7 u : X X # $ $ & 3 i q q z d l H H 8 8 8 c 7 S ",
"6.=.H 6 u : $ # = u : % u z u 8 0 0 0 < < < , < $ $ X X X # $ 6 u 3 3 6 q q q q z 8 u 8 } } H u _ $.",
"u = $ = : = * , u > = : 8 H C 8 0 0 0 < < , < < $ $ # # % 1 q i u k k q q l ^ ^ } +.o.^ ^ l 8 7 o.$.",
"= # $ : 3 > > u u = = 6 8 H } 8 0 < < < , 0 < : $ > u 1 8 z q * 1 q 3 3 3 q q 3 u u l ^ l l A o.o.$.",
"> - > , 3 3 : : , % > H d H } 8 < < < < < n v % $ > > = : q 3 1 q q q z ^ l ^ +.+.K K +.>.@.^ l O ; ",
"= , : : > u 6 1 = = 8 ,.H H H < v < 0 < u ~ 0 X = u 3 - 1 q q q q q q +.^ l K +.+.+.@.+.^ u ; $ & 2 ",
"3 u 6 3 > > , = , u H } n 8 8 u v < v < u %.n X > u u 1 3 q 1 1 1 3 1 & & & & . o & : : & # & % : 2 ",
"1 u u 6 6 3 : = H ( H 8 u u 8 8 v < v v < -.H # $ $ # # % & . X o o # . o * : & % & $ $ & : 3 2 1 g ",
"- = - : - < u < n 8 > : u u u 8 0 0 < 0 n u $ X # & & # o # * : 3 1 u < u < $ % = - u u = : = = > u ",
";.=.;.;.~ ;.9.7.7.6.E } 2.5.2.5.;.6.9.9.2.d u 6 +.+.^ ^ +.@.<.4.>.>.,.} ,.} u C H H >.+.E ~ ~ n ^ 2."
};
